<svg xmlns:dc="http://purl.org/dc/elements/1.1/" xmlns:cc="http://creativecommons.org/ns#" xmlns:rdf="http://www.w3.org/1999/02/22-rdf-syntax-ns#" xmlns:svg="http://www.w3.org/2000/svg" xmlns="http://www.w3.org/2000/svg" xmlns:sodipodi="http://sodipodi.sourceforge.net/DTD/sodipodi-0.dtd" xmlns:inkscape="http://www.inkscape.org/namespaces/inkscape" width="118" height="32" version="1.1" inkscape:version="0.48.4 r9939"><style>.style0{fill:	#ffb23a;}.style1{font-size:	20.18179893px;font-weight:	500;line-height:	125%;letter-spacing:	0px;word-spacing:	0px;fill:	#00335e;font-family:	Gotham;-inkscape-font-specification:	Gotham Medium;}.style2{font-size:	22.0082531px;font-style:	italic;font-weight:	bold;fill:	#00335e;font-family:	Helvetica Neue;-inkscape-font-specification:	Helvetica Neue;}.style3{fill:	#00335e;}.style4{fill:	#296192;}.style5{opacity:	0.1;fill:	none;stroke:	#000000;stroke-width:	0.97247976px;}</style><defs/><metadata><rdf:RDF><cc:Work rdf:about=""><dc:format>image/svg+xml</dc:format><dc:type rdf:resource="http://purl.org/dc/dcmitype/StillImage"/><dc:title/></cc:Work></rdf:RDF></metadata><g inkscape:label="Layer 1" inkscape:groupmode="layer" transform="translate(0,-1020.3622)"><rect width="118" height="32" ry="4" x="0" y="1020.4" class="style0"/><g transform="matrix(0.75,0,0,0.75,2,259.09055)" class="style1"><path d="m 12 1041.2 2 -9.9 2.5 0 c 0.9 0 1.5 0.1 2.1 0.4 0.5 0.2 0.9 0.6 1.2 1 0.3 0.5 0.4 1 0.4 1.7 0 0.6 -0 1.3 -0.2 2.1 -0.2 0.9 -0.4 1.6 -0.8 2.2 -0.3 0.6 -0.7 1.1 -1.2 1.5 -0.4 0.4 -0.9 0.6 -1.4 0.8 -0.5 0.2 -1 0.2 -1.5 0.2 l -3.1 0 M 11.1 1028.4 8 1044.1 l 6.8 0 c 1.2 0 2.3 -0.2 3.3 -0.6 1 -0.4 1.8 -1 2.6 -1.7 0.7 -0.7 1.3 -1.5 1.8 -2.5 0.5 -1 0.9 -2 1.1 -3.2 0.3 -1.3 0.3 -2.4 0.1 -3.4 -0.2 -1 -0.5 -1.8 -1 -2.4 -0.5 -0.6 -1.2 -1.1 -2 -1.5 -0.8 -0.3 -1.7 -0.5 -2.7 -0.5 l -6.8 0" inkscape:connector-curvature="0" class="style2"/><path d="m 27.9 1038.4 c 0.1 -0.5 0.2 -0.9 0.4 -1.3 0.2 -0.4 0.4 -0.8 0.7 -1.2 0.3 -0.3 0.6 -0.6 1 -0.8 0.4 -0.2 0.9 -0.3 1.4 -0.3 0.5 0 0.9 0.1 1.3 0.3 0.3 0.2 0.6 0.5 0.7 0.8 0.1 0.3 0.2 0.7 0.2 1.2 -0 0.4 -0 0.9 -0.1 1.3 -0.1 0.5 -0.2 0.9 -0.4 1.3 -0.2 0.4 -0.4 0.8 -0.7 1.2 -0.3 0.3 -0.6 0.6 -1 0.8 -0.4 0.2 -0.9 0.3 -1.4 0.3 -0.5 0 -1 -0.1 -1.3 -0.3 -0.3 -0.2 -0.5 -0.5 -0.7 -0.8 -0.1 -0.4 -0.2 -0.7 -0.2 -1.2 -0 -0.4 0.1 -0.9 0.2 -1.3 m -3.1 0 c -0.2 0.9 -0.2 1.7 -0.1 2.5 0.1 0.7 0.4 1.4 0.8 1.9 0.4 0.5 0.9 0.9 1.6 1.2 0.7 0.3 1.4 0.4 2.3 0.4 0.9 0 1.7 -0.1 2.5 -0.4 0.8 -0.3 1.5 -0.7 2.1 -1.2 0.6 -0.5 1.1 -1.2 1.6 -1.9 0.4 -0.7 0.7 -1.6 0.9 -2.5 0.2 -0.9 0.2 -1.7 0.1 -2.5 -0.1 -0.7 -0.4 -1.4 -0.8 -1.9 -0.4 -0.5 -1 -0.9 -1.6 -1.2 -0.7 -0.3 -1.4 -0.4 -2.3 -0.4 -0.9 0 -1.7 0.1 -2.5 0.4 -0.8 0.3 -1.5 0.7 -2.1 1.2 -0.6 0.5 -1.1 1.1 -1.6 1.9 -0.4 0.7 -0.7 1.6 -0.9 2.5" inkscape:connector-curvature="0" class="style2"/><path d="m 39.7 1032.7 -2.3 11.4 3.1 0 1.2 -6 c 0.2 -1.2 0.6 -2 1.1 -2.5 0.5 -0.5 1.2 -0.8 2 -0.8 0.7 0 1.2 0.2 1.4 0.7 0.2 0.5 0.2 1.2 0 2.1 l -1.3 6.4 3.1 0 1.4 -7 c 0.1 -0.7 0.2 -1.3 0.2 -1.9 -0 -0.6 -0.1 -1.1 -0.4 -1.5 -0.2 -0.4 -0.6 -0.7 -1.1 -0.9 -0.5 -0.2 -1.1 -0.4 -2 -0.4 -0.7 0 -1.3 0.2 -2 0.5 -0.7 0.3 -1.3 0.8 -1.8 1.4 l -0.1 0 0.3 -1.6 -3 0" inkscape:connector-curvature="0" class="style2"/><path d="m 51.9 1036.2 3.1 0 c 0.2 -0.6 0.5 -1.1 0.9 -1.3 0.4 -0.3 0.9 -0.4 1.5 -0.4 0.3 0 0.5 0 0.8 0.1 0.2 0 0.4 0.1 0.6 0.2 0.2 0.1 0.3 0.3 0.4 0.5 0.1 0.2 0.1 0.5 0 0.8 -0 0.3 -0.2 0.6 -0.4 0.7 -0.2 0.2 -0.5 0.3 -0.9 0.4 -0.4 0.1 -0.8 0.2 -1.3 0.2 -0.5 0 -0.9 0.1 -1.4 0.2 -0.5 0.1 -1 0.2 -1.5 0.3 -0.5 0.1 -0.9 0.3 -1.3 0.6 -0.4 0.2 -0.8 0.6 -1.1 1 -0.3 0.4 -0.5 0.9 -0.7 1.6 -0.1 0.6 -0.1 1.1 0 1.5 0.1 0.4 0.3 0.8 0.6 1.1 0.3 0.3 0.7 0.5 1.1 0.6 0.4 0.1 0.9 0.2 1.5 0.2 0.7 0 1.4 -0.1 2.1 -0.3 0.7 -0.2 1.4 -0.6 2 -1.1 -0 0.2 -0 0.4 -0 0.6 -0 0.2 0 0.4 0 0.5 l 3.2 0 c -0.1 -0.2 -0.1 -0.6 -0.1 -1.1 0 -0.5 0.1 -1 0.2 -1.5 l 1.2 -5.9 c 0.1 -0.7 0.1 -1.2 -0.1 -1.7 -0.2 -0.4 -0.6 -0.8 -1 -1 -0.4 -0.2 -0.9 -0.4 -1.5 -0.5 -0.6 -0.1 -1.1 -0.1 -1.7 -0.1 -0.6 0 -1.3 0.1 -1.9 0.2 -0.6 0.1 -1.2 0.3 -1.8 0.6 -0.6 0.3 -1 0.7 -1.5 1.2 -0.4 0.5 -0.7 1.1 -0.9 1.8 m 6.8 2.3 -0.2 1.2 c -0 0.2 -0.1 0.4 -0.2 0.7 -0.1 0.3 -0.2 0.6 -0.5 0.9 -0.2 0.3 -0.5 0.5 -0.9 0.7 -0.4 0.2 -0.9 0.3 -1.5 0.3 -0.2 0 -0.5 -0 -0.7 -0.1 -0.2 -0 -0.4 -0.1 -0.6 -0.2 -0.1 -0.1 -0.2 -0.3 -0.3 -0.5 -0.1 -0.2 -0.1 -0.4 -0 -0.7 0.1 -0.3 0.2 -0.5 0.3 -0.7 0.1 -0.2 0.3 -0.3 0.5 -0.5 0.2 -0.1 0.4 -0.2 0.6 -0.3 0.2 -0.1 0.5 -0.1 0.7 -0.2 0.2 -0 0.5 -0.1 0.7 -0.1 0.3 -0 0.5 -0.1 0.7 -0.1 0.2 -0 0.5 -0.1 0.7 -0.2 0.2 -0.1 0.4 -0.2 0.6 -0.3" inkscape:connector-curvature="0" class="style2"/><path d="m 69.3 1032.7 0.7 -3.4 -3.1 0 -0.7 3.4 -1.9 0 -0.4 2.1 1.9 0 -1.3 6.7 c -0.1 0.6 -0.1 1 0 1.4 0.1 0.4 0.3 0.6 0.6 0.8 0.3 0.2 0.6 0.3 1.1 0.4 0.4 0.1 0.9 0.1 1.4 0.1 0.3 0 0.6 -0 0.9 -0 0.3 -0 0.6 -0 0.9 -0.1 l 0.5 -2.4 c -0.1 0 -0.3 0.1 -0.5 0.1 -0.2 0 -0.3 0 -0.5 0 -0.5 0 -0.9 -0.1 -1 -0.3 -0.1 -0.2 -0.1 -0.5 -0 -1.1 l 1.1 -5.6 2.3 0 0.4 -2.1 -2.3 0" inkscape:connector-curvature="0" class="style2"/><path d="m 79.9 1037.2 -5.1 0 c 0.1 -0.2 0.2 -0.5 0.3 -0.7 0.1 -0.3 0.3 -0.5 0.6 -0.8 0.2 -0.2 0.6 -0.5 0.9 -0.6 0.4 -0.2 0.8 -0.3 1.3 -0.3 0.8 0 1.3 0.2 1.6 0.6 0.3 0.4 0.4 1 0.4 1.8 m -5.5 2 8.2 0 c 0.2 -0.9 0.3 -1.7 0.3 -2.5 -0 -0.8 -0.2 -1.5 -0.6 -2.2 -0.3 -0.6 -0.8 -1.1 -1.5 -1.5 -0.6 -0.4 -1.5 -0.6 -2.4 -0.6 -0.9 0 -1.7 0.2 -2.5 0.5 -0.8 0.3 -1.5 0.7 -2.1 1.3 -0.6 0.5 -1.1 1.2 -1.6 1.9 -0.4 0.7 -0.7 1.5 -0.9 2.4 -0.2 0.9 -0.2 1.7 -0.1 2.4 0.1 0.7 0.4 1.4 0.8 1.9 0.4 0.5 0.9 0.9 1.6 1.2 0.7 0.3 1.4 0.4 2.3 0.4 1.3 0 2.5 -0.3 3.5 -0.9 1 -0.6 1.9 -1.6 2.6 -2.9 l -2.8 0 c -0.2 0.4 -0.5 0.7 -1 1 -0.5 0.3 -1.1 0.5 -1.7 0.5 -0.9 0 -1.5 -0.2 -1.9 -0.7 -0.4 -0.5 -0.5 -1.2 -0.3 -2.2" inkscape:connector-curvature="0" class="style2"/></g><g transform="matrix(0.020016,0,0,0.020016,85.179569,1036.2948)"><path d="m -399.5 -180.8 c -35.1 -2.3 -81 -5.4 -78.2 43.2 -24.6 105.5 -49.5 211 -72.2 317 12 25.8 60.7 10.6 85.5 9.2 17.7 -36.5 16.8 -81.6 37.8 -116 44.3 -2.9 90.2 3.7 133.5 -10.5 60.7 -13.7 107.9 -68.8 109.5 -131.3 6.5 -43.5 -17 -89.7 -59.8 -103.9 -39.7 -13 -82.7 -5.1 -123.8 -7.7 -10.7 -0 -21.4 -0 -32.2 -0 z m 36.1 67.2 c 39.3 -5.8 93.3 17.1 80.1 64.9 -13.5 46 -71.2 52.5 -112 49 -32.6 -20.6 2.9 -73.9 7.4 -105.9 6.1 -7 15.7 -8.7 24.5 -8 z m 321.3 18.2 c -34.3 6 -89.9 -7.3 -105.3 31.2 -10.9 27.8 -1.8 60.6 32.4 37.6 37.1 -3.7 86.3 -20.9 116.7 6.9 19.5 47.6 -38.7 43.7 -69.2 43.2 -51.2 -1.1 -115.5 10.5 -137.7 63.3 -15.1 36.8 -11 92.6 32.7 107.2 44.2 15.9 92.6 2.4 130.1 -23.7 28.7 -22.1 -5 40 31.1 22.9 35.9 5.9 74.5 -2.9 70.9 -47.3 C 70 91.3 85.9 37.3 90.9 -18 88.8 -69.2 32.3 -95.4 -13.1 -94.8 -22.8 -95.3 -32.4 -95.5 -42.1 -95.4 z m 438.2 0 c -45.8 -10.5 -56.5 42.2 -78.6 70 C 295.2 10.1 273.4 45.9 251.4 81.5 228 70.1 236.3 18.3 226.6 -9.2 216.1 -37.2 230.1 -93.3 188.9 -95.2 c -22.2 0.4 -74.6 -7.5 -63 29 15.1 90.3 33 180.1 49.7 270.1 -15.2 37.7 -46 67.8 -60.5 105.5 16.3 17.7 64.3 9.7 88.7 4.6 C 266.9 223.2 321.2 126.6 379.4 32.6 402 -7.8 430.1 -46 448.7 -88.2 437.8 -101.5 412.1 -92.6 396.1 -95.4 z M -23.5 61.3 c 29.3 16.2 -3.3 81.2 -37.7 80.7 -36.3 16.8 -86.9 -16.6 -59.1 -55.9 24.3 -25.7 64.2 -23.1 96.8 -24.8 z" inkscape:connector-curvature="0" class="style3"/><path d="m 546.4 -180.5 c -34.3 -9.4 -55.3 13.1 -55 46.7 -23.8 104.5 -49.7 208.5 -71.4 313.5 5.7 23.3 39.1 8.8 58 12.3 14 1.4 32.4 0.8 33 -18.4 10 -32.6 14.8 -67 28.1 -98.4 26.5 -11 58.7 1.1 87.1 -4.9 59.7 -3.5 125.2 -31.6 147.9 -90.9 17 -43.3 19.6 -101.6 -18.9 -134.7 -22.3 -19 -51.9 -27.5 -80.8 -24.9 -42.7 -0.1 -85.4 -0.3 -128.1 -0.3 z M 1181 -178.5 c -38.5 -8.8 -36.8 37 -44.3 62 -22.1 98.9 -46.9 197.3 -64 297.2 1 16.8 20.6 8.9 31.6 10.7 22.6 -1.1 58.4 9.4 55.7 -25.6 25.8 -110.1 53.4 -219.8 77.7 -330.2 -4.3 -23.6 -40.7 -10.4 -56.7 -14.1 z m -569.9 64.2 c 29.7 -1 70.8 6.7 76 41.9 8.9 37.3 -26 66.7 -60.2 70.5 -22 0.9 -73.7 15.8 -66.7 -21.9 10.1 -28.7 4.8 -71.8 32.2 -89.1 6.2 -1.1 12.4 -1.3 18.7 -1.4 z m 319.8 18.8 c -33.8 1.4 -69.1 1.7 -101 13.7 -13.4 13.4 -27.1 76.3 9.2 57.8 38.8 -8.7 80.7 -16.1 119.8 -5.9 30.4 18.8 7.8 65.8 -27.1 52 -52.6 1.7 -113.6 -0.9 -153.3 40 -25.4 28.2 -31.3 73.8 -13.7 107.2 23.6 35.1 72.9 35.3 109.6 25.4 20.1 -3.7 52 -36.8 63.6 -24.9 -9.3 40.3 47.4 18.2 69.4 20.6 22.8 -18 16.9 -54.8 26.8 -80.5 7.7 -43 21.2 -85.4 23.6 -129.1 -3 -47.4 -54.3 -73.8 -97.1 -75.1 -9.9 -0.9 -19.8 -1.3 -29.7 -1.2 z m 13.8 156.4 c 29.4 6.2 6 60.5 -13.1 73.1 -27.2 13.9 -85.7 22.3 -89.4 -20.4 -5.5 -35.6 35.6 -49.6 63.9 -50.6 12.8 -1.1 25.7 -1.8 38.5 -2.1 z" inkscape:connector-curvature="0" class="style4"/></g><path d="m 68.6 1023.8 0 25.1" inkscape:connector-curvature="0" class="style5"/></g></svg>