<svg xmlns:svg="http://www.w3.org/2000/svg" xmlns="http://www.w3.org/2000/svg" version="1.1" width="32" height="32"><rect width="32" height="32" ry="4" x="0" y="0" fill="#F5F5F5"/><g transform="matrix(0.77087292,0,0,0.77087292,3.666033,-782.90353)"><path d="m16 1020.8c-8.8 0-16 7.1-16 16 0 7.1 4.6 13 10.9 15.1 0.8 0.1 1.1-0.3 1.1-0.8 0-0.4 0-1.4 0-2.7-4.5 1-5.4-2.1-5.4-2.1-0.7-1.8-1.8-2.3-1.8-2.3-1.5-1 0.1-1 0.1-1 1.6 0.1 2.5 1.6 2.5 1.6 1.4 2.4 3.7 1.7 4.7 1.3 0.1-1 0.6-1.7 1-2.1-3.6-0.4-7.3-1.8-7.3-7.9 0-1.7 0.6-3.2 1.6-4.3-0.2-0.4-0.7-2 0.2-4.2 0 0 1.3-0.4 4.4 1.6 1.3-0.4 2.6-0.5 4-0.5 1.4 0 2.7 0.2 4 0.5 3.1-2.1 4.4-1.6 4.4-1.6 0.9 2.2 0.3 3.8 0.2 4.2 1 1.1 1.6 2.5 1.6 4.3 0 6.1-3.7 7.5-7.3 7.9 0.6 0.5 1.1 1.5 1.1 3 0 2.1 0 3.9 0 4.4 0 0.4 0.3 0.9 1.1 0.8 6.4-2.1 10.9-8.1 10.9-15.1 0-8.8-7.2-16-16-16" fill="#333333"/></g></svg>
