<svg xmlns:svg="http://www.w3.org/2000/svg" xmlns="http://www.w3.org/2000/svg" width="110" height="48" version="1.1"><g transform="translate(0,-1004.3622)"><g transform="matrix(0.57908085,0,0,0.57908085,-0.0126822,443.57033)" style="fill:#fff;font-family:Sans;font-size:40;letter-spacing:0;line-height:125;word-spacing:0"><path d="m15.6 1038.9c0 2.6-0.5 4.5-1.3 5.7-0.8 1.2-2.3 1.8-4.2 1.8-0.8 0-1.7-0.1-2.9-0.3l-0.9 4.2c0.9 0.4 1.7 0.7 2.3 0.8 0.7 0.1 1.5 0.2 2.5 0.2 3.7 0 6.3-1.1 7.8-3.2 1.6-2.2 2.3-5.5 2.3-10l0-49.6-5.7 0 0 2.3c-1-1-1.8-1.6-2.6-2.1-0.8-0.4-1.7-0.6-2.9-0.6-2.5 0-4.4 1-5.7 3.1-1.2 2-1.8 4.5-1.8 7.6l0 28.2c0 3.2 0.6 5.8 1.7 7.6 1.1 1.8 2.8 2.7 5 2.7 1 0 2-0.3 2.9-0.9 1-0.6 2.1-1.5 3.3-2.8l0 5.4m-4.3-7.4c-1.2 0-2-0.4-2.3-1.3-0.4-0.9-0.5-2.1-0.5-3.5l0-28.1c0-1.7 0.2-3 0.7-3.8 0.5-0.8 1.1-1.3 2-1.3 1.6 0 3.1 1.4 4.5 4.1l0 30.2c-0.7 1.1-1.4 2-2.1 2.7-0.7 0.7-1.4 1-2.2 1M38.9 1037.1c1.9 0 3.4-0.3 4.5-1 1.2-0.7 2.1-1.7 2.8-3 0.7-1.3 1.1-2.8 1.4-4.6 0.2-1.9 0.4-3.9 0.4-6.2l0-19.7c0-2.3-0.1-4.3-0.4-6.2-0.2-1.9-0.7-3.4-1.3-4.7-0.7-1.3-1.6-2.3-2.7-3.1-1.1-0.7-2.6-1.1-4.5-1.1-1.9 0-3.4 0.4-4.6 1.2-1.1 0.7-2 1.7-2.7 3.1-0.7 1.3-1.1 2.9-1.3 4.8-0.2 1.8-0.4 3.8-0.4 6l0 19.7c0 2.2 0.1 4.2 0.4 6 0.2 1.8 0.7 3.4 1.4 4.7 0.7 1.3 1.6 2.3 2.7 3 1.1 0.7 2.6 1.1 4.5 1.1m0.1-5c-2.1 0-3.2-1.9-3.1-5.8l0-28.1c0-3.6 1-5.4 3.2-5.4 2 0 3.1 1.8 3.1 5.5l0 28.2c0 3.7-1 5.6-3.1 5.6M57.4 993.4l0 42.8 5.8 0 0-42.8 3.9 0 0-4.9-3.9 0 0-15.1-5.8 0 0 15.1-3.9 0 0 5 3.9 0M89.4 988.5l0 62.8 5.9 0 0-17c1 1 1.9 1.6 2.6 2 0.8 0.4 1.7 0.6 2.8 0.6 1.3 0 2.5-0.3 3.4-0.8 1-0.6 1.7-1.4 2.3-2.3 0.6-1 1-2.2 1.3-3.4 0.3-1.3 0.4-2.7 0.5-4.1l0-27.5c0-3.4-0.5-6-1.5-7.7-1-1.7-2.6-2.6-4.9-2.6-1 0-1.9 0.3-2.9 0.8-1 0.5-2.1 1.3-3.5 2.5l0-3.1-5.8 0m10.1 5.4c1 0 1.7 0.5 2.1 1.4 0.4 0.8 0.5 1.9 0.5 3.2l0 28c0.1 1.9-0.2 3.2-0.7 4-0.5 0.8-1.1 1.2-1.9 1.2-0.8 0-1.6-0.3-2.2-0.9-0.6-0.7-1.3-1.7-2.1-3.1l0-30.2c1.8-2.3 3.2-3.4 4.2-3.4M134.3 1013.9l0-13.9c0-3.7-0.7-6.6-2.1-8.9-1.4-2.3-3.7-3.4-6.8-3.4-1.9 0-3.5 0.4-4.7 1.1-1.1 0.7-2 1.7-2.7 3.1-0.6 1.3-1 2.9-1.3 4.8-0.2 1.8-0.4 3.8-0.4 6l0 19.7c0 2.2 0.1 4.3 0.4 6.1 0.2 1.8 0.7 3.4 1.3 4.7 0.7 1.3 1.6 2.3 2.7 3 1.1 0.7 2.6 1.1 4.5 1.1 3.5 0 5.8-1.2 7.1-3.6 1.3-2.5 2-5.8 2-10l0-3.9-5.8 0 0 5.7c0 2.3-0.2 4-0.7 5-0.4 1.1-1.3 1.6-2.5 1.6-1.1 0-1.9-0.5-2.3-1.5-0.4-1-0.5-2.5-0.5-4.3l0-12.3 12 0m-12-15.1c0-1.9 0.2-3.4 0.5-4.4 0.4-1.1 1.2-1.6 2.3-1.6 1.4 0 2.3 0.5 2.7 1.6 0.4 1 0.6 2.7 0.6 5l0 9.1-6.2 0 0-9.6M143 988.5l0 62.8 5.9 0 0-17c1 1 1.9 1.6 2.6 2 0.8 0.4 1.7 0.6 2.8 0.6 1.3 0 2.5-0.3 3.4-0.8 1-0.6 1.7-1.4 2.3-2.3 0.6-1 1-2.2 1.3-3.4 0.3-1.3 0.4-2.7 0.5-4.1l0-27.5c0-3.4-0.5-6-1.5-7.7-1-1.7-2.6-2.6-4.9-2.6-1 0-1.9 0.3-2.9 0.8-1 0.5-2.1 1.3-3.5 2.5l0-3.1-5.8 0m10.1 5.4c1 0 1.7 0.5 2.1 1.4 0.4 0.8 0.5 1.9 0.5 3.2l0 28c0.1 1.9-0.2 3.2-0.7 4-0.5 0.8-1.1 1.2-1.9 1.2-0.8 0-1.6-0.3-2.2-0.9-0.6-0.7-1.3-1.7-2.1-3.1l0-30.2c1.8-2.3 3.2-3.4 4.2-3.4M181.9 999.7l4.5-12.6c0.3-0.8 0.5-1.8 0.7-2.9 0.2-1.1 0.3-2.4 0.3-4 0-7.9-3.3-11.9-10-11.9-2 0-3.6 0.3-4.8 0.9-1.2 0.6-2.2 1.5-2.9 2.8-0.7 1.3-1.1 2.9-1.3 4.8-0.2 1.9-0.4 4.1-0.4 6.6l5 0c0-1.7 0-3.1 0.1-4.4 0.1-1.3 0.3-2.3 0.5-3.1 0.3-0.8 0.7-1.5 1.3-1.9 0.5-0.4 1.3-0.6 2.3-0.6 1.5 0 2.6 0.7 3.4 2 0.8 1.3 1.2 3.3 1.2 6.2 0 1.2-0.1 2.2-0.2 2.9-0.1 0.7-0.3 1.3-0.4 1.8l-4.7 13.3c-0.5 1.4-0.9 3.3-1.2 5.7-0.3 2.4-0.5 4.9-0.4 7.4 0 0.4 0 1.1 0 2 0 0.8 0.1 2 0.2 3.6l4.5 0c0-2.7 0-4.9 0.1-6.6 0.1-1.7 0.1-3.2 0.3-4.5 0.2-1.3 0.4-2.5 0.7-3.6 0.3-1.1 0.7-2.3 1.3-3.8m-8.2 36.5 6.4 0 0-8-6.4 0 0 8" style="-inkscape-font-specification:CgPhenixAmerican Medium;fill:#fff;font-family:CgPhenixAmerican;font-size:90"/></g></g></svg>