<svg xmlns:svg="http://www.w3.org/2000/svg" xmlns="http://www.w3.org/2000/svg" version="1.1" width="32" height="32"><defs><linearGradient><stop offset="0" style="stop-color:#a1cc3a;stop-opacity:1"/><stop offset="1" style="stop-color:#71bf44;stop-opacity:1"/></linearGradient><linearGradient x1="15.9" y1="5.4" x2="15.9" y2="27.5" gradientUnits="userSpaceOnUse"/><linearGradient gradientUnits="userSpaceOnUse" x1="15.9" y1="5.4" x2="15.9" y2="27.5" gradientTransform="translate(33.14563,0)"/><linearGradient gradientUnits="userSpaceOnUse" gradientTransform="translate(33.39563,0.25)" x1="15.9" y1="5.4" x2="15.9" y2="27.5"/></defs><rect width="28" height="26" x="2" y="3" ry="0" fill="#8dc73f"/><path d="m2.4 3.3 0 27 28 0 0-27zm14.2 1.5 0 0c2.1 0 4 0.4 5.7 1.3 1.6 0.8 2.9 2 3.9 3.5 1.2-0.7 2.2-1.3 2.3-1.5-0.2 0.6-0.2 10.4-0.2 10.4l-8.8-5c0 0 0.9-0.5 2.1-1.2-0.7-0.8-1.5-1.3-2.2-1.6-0.8-0.4-1.8-0.6-2.9-0.6-2 0-3.7 0.7-4.9 1.9-1.2 1.3-1.9 2.9-1.9 4.9 0 1.9 0.6 3.5 1.8 4.8 1.2 1.2 2.8 1.8 4.8 1.8 2.4 0 4.3-0.9 5.6-2.6l4.3 3.1c-2.3 3.2-5.5 4.8-9.7 4.8-3.8 0-6.8-1.2-8.9-3.6-2.1-2.4-3.2-5.2-3.2-8.3 0-2.2 0.5-4.3 1.6-6.1 1-1.9 2.5-3.3 4.4-4.4 1.9-1.1 3.9-1.6 6.3-1.6z" fill="#537723"/><path d="M4 0C1.8 0 0 1.8 0 4L0 28C0 30.2 1.8 32 4 32L28 32C30.2 32 32 30.2 32 28L32 4C32 1.8 30.2 0 28 0L4 0zM16.1 4L16.1 4C18.3 4 20.2 4.4 21.8 5.3 23.4 6.2 24.7 7.4 25.8 8.8 27 8.1 27.9 7.5 28.1 7.4 27.9 7.9 27.9 17.8 27.9 17.8L19.1 12.8C19.1 12.8 20 12.2 21.2 11.5 20.5 10.7 19.8 10.2 19 9.9 18.2 9.5 17.2 9.3 16.1 9.3 14.1 9.3 12.5 10 11.2 11.3 10 12.5 9.3 14.2 9.3 16.2 9.3 18.1 10 19.7 11.2 20.9 12.4 22.1 14 22.8 15.9 22.8 18.3 22.7 20.2 21.9 21.5 20.1L25.8 23.2C23.5 26.4 20.2 28 16 28 12.2 28 9.3 26.8 7.1 24.4 5 22.1 3.9 19.3 3.9 16.1 3.9 13.9 4.4 11.8 5.5 10 6.5 8.1 8 6.7 9.8 5.6 11.7 4.5 13.8 4 16.1 4z" fill="#F4F4F4"/></svg>
