<?xml version="1.0" encoding="UTF-8" standalone="no"?>
<svg
   xmlns:dc="http://purl.org/dc/elements/1.1/"
   xmlns:cc="http://creativecommons.org/ns#"
   xmlns:rdf="http://www.w3.org/1999/02/22-rdf-syntax-ns#"
   xmlns:svg="http://www.w3.org/2000/svg"
   xmlns="http://www.w3.org/2000/svg"
   xmlns:sodipodi="http://sodipodi.sourceforge.net/DTD/sodipodi-0.dtd"
   xmlns:inkscape="http://www.inkscape.org/namespaces/inkscape"
   width="32"
   height="32"
   version="1.1"
   id="svg2"
   inkscape:version="0.48.4 r9939"
   sodipodi:docname="twitter.svg">
  <metadata
     id="metadata14">
    <rdf:RDF>
      <cc:Work
         rdf:about="">
        <dc:format>image/svg+xml</dc:format>
        <dc:type
           rdf:resource="http://purl.org/dc/dcmitype/StillImage" />
      </cc:Work>
    </rdf:RDF>
  </metadata>
  <defs
     id="defs12" />
  <sodipodi:namedview
     pagecolor="#ffffff"
     bordercolor="#666666"
     borderopacity="1"
     objecttolerance="10"
     gridtolerance="10"
     guidetolerance="10"
     inkscape:pageopacity="0"
     inkscape:pageshadow="2"
     inkscape:window-width="860"
     inkscape:window-height="551"
     id="namedview10"
     showgrid="false"
     inkscape:zoom="7.375"
     inkscape:cx="16"
     inkscape:cy="16"
     inkscape:window-x="428"
     inkscape:window-y="89"
     inkscape:window-maximized="0"
     inkscape:current-layer="svg2" />
  <rect
     style="fill:#03acef;fill-opacity:1"
     id="rect6"
     ry="4"
     y="0.014282207"
     x="-0.020542206"
     height="32"
     width="32" />
  <path
     style="fill:#ffffff;fill-opacity:1"
     inkscape:connector-curvature="0"
     id="path8"
     d="m 26.87947,9.11427 c -0.8,0.4 -1.7,0.6 -2.6,0.7 0.9,-0.6 1.6,-1.4 2,-2.5 -0.9,0.5 -1.8,0.9 -2.9,1.1 -0.8,-0.9 -2,-1.4 -3.3,-1.4 -2.5,0 -4.5,2 -4.5,4.5 0,0.4 0,0.7 0.1,1 -3.7,-0.2 -7.1,-2 -9.3,-4.7 -0.4,0.7 -0.6,1.4 -0.6,2.3 0,1.6 0.8,2.9 2,3.7 -0.7,0 -1.4,-0.2 -2,-0.6 0,0 0,0 0,0.1 0,2.2 1.6,4 3.6,4.4 -0.4,0.1 -0.8,0.2 -1.2,0.2 -0.3,0 -0.6,0 -0.8,-0.1 0.6,1.8 2.2,3.1 4.2,3.1 -1.5,1.2 -3.5,1.9 -5.6,1.9 -0.4,0 -0.7,0 -1.1,-0.1 2,1.3 4.4,2 6.9,2 8.3,0 12.8,-6.9 12.8,-12.8 0,-0.2 0,-0.4 0,-0.6 0.9,-0.6 1.6,-1.4 2.2,-2.3 z" />
</svg>
