<svg xmlns:svg="http://www.w3.org/2000/svg" xmlns="http://www.w3.org/2000/svg" version="1.1" width="100" height="32"><g transform="matrix(0.01274092,0,0,0.01274092,4.8935211,1.963399)"><g transform="matrix(1.1999998,0,0,1.1999998,-385.7494,-157.04982)"><path d="m2882 1834c0 0-92-301-204-669-112-367-206-672-208-678-11-35-34-66-64-88-33-24-80-40-128-43l-12 0 0-47 0-47 336 0 336 0 0 47 0 47-4 0c-2 0-8 1-14 1-55 5-96 21-119 45-9 9-13 16-17 26-2 6-2 8-2 21l0 14 129 442c71 243 130 444 130 446 0 2 1 2 1 2 0 0 78-243 173-539l173-538 57 0 57 0 196 541c108 297 196 542 197 542 0 0 0 3 10-31 63-206 143-487 199-710 24-95 32-132 32-150 0-9 0-12-2-19-12-39-54-71-116-87-12-3-31-6-43-7-3 0-8 0-11-1l-4 0 0-47 0-47 597 0c373 0 608 0 627 1 135 4 231 23 310 62 40 19 71 42 104 75 42 42 71 88 92 145 23 65 31 147 22 228-16 141-85 255-203 332-83 54-183 87-301 98-18 1-136 1-157 0-18-1-47-5-63-8l-12-2 0 185c0 191 0 195 4 224 4 32 12 51 26 67 20 21 51 31 118 39 13 1 71 6 74 6 1 0 1 7 1 47l0 47-360 0-360 0 0-47c0-45 0-47 1-47 3 0 52-5 68-6 69-8 97-22 114-56 9-18 14-45 16-88 0-12 1-196 1-542 0-511 0-524-1-534-8-43-39-80-86-104-31-15-65-23-102-23-55 0-106 20-142 56-27 27-49 69-76 147-71 203-145 432-248 764-41 134-111 366-148 490l-5 19-60 0-60 0 0-2c0-1-88-243-194-538-106-294-194-535-194-535 0 0-80 242-179 538l-178 537-60 0c-47 0-60 0-61-1zm2265-756c63-9 113-34 156-76 32-32 55-70 71-120 27-84 32-201 10-288-27-110-93-184-191-214-27-8-56-12-90-13-41 0-69 3-91 13-18 8-27 22-32 50 0 4-1 84-1 317l0 311 7 2c26 9 59 16 100 18 13 0 48 0 61-2zm632 683c0-45 0-47 1-47 3 0 53-5 68-7 54-7 82-17 100-36 16-17 23-41 28-90 1-16 2-1042 0-1073-2-43-6-67-15-87-3-8-8-14-15-22-20-26-52-35-148-44l-18-1 0-47 0-47 348 0 348 0 0 47 0 47-20 1c-97 8-131 18-152 45-14 18-21 44-25 97-1 26-1 1043 0 1070 3 56 11 83 29 102 17 18 44 28 98 35 13 1 65 7 68 7 1 0 1 8 1 47l0 47-348 0-348 0 0-47z" fill="#fff"/><g transform="translate(1.5628949e-5,-4.0248719e-6)"><path transform="matrix(2.5392683,0,0,2.4450871,31.863121,-517.8147)" d="m812 639c0 236-184 428-412 428-227 0-412-191-412-428 0-236 184-428 412-428 227 0 412 191 412 428z" fill="#b2b7bb"/><path d="m1006 2043c-3 0-14 0-23-1-191-11-378-80-534-197-40-30-68-55-106-92-37-37-62-65-92-106C121 1474 52 1266 52 1048 52 801 140 568 306 382 320 366 364 322 381 307 491 209 618 137 758 95 823 76 892 62 961 57c62-5 134-4 197 2 190 21 368 95 517 216 51 41 104 94 145 145 171 211 248 480 214 752-22 184-96 359-214 504-41 51-94 104-145 145-159 129-347 203-555 220-19 1-97 2-113 1zm87-260c106-7 207-37 299-86 174-94 304-256 358-445 28-99 35-203 20-307C1746 774 1659 614 1527 498 1359 350 1134 287 913 326 793 347 678 399 582 476 543 507 501 549 471 587 342 746 286 949 314 1151c22 161 97 309 215 424 130 127 299 201 482 209 19 0 62 0 82-1zm-72-45c-53-32-101-67-148-108-33-29-84-82-113-117-88-108-154-233-190-365-2-10-5-19-5-20 0-1 22-1 481-1 285 0 482 0 482 0 0 1-12 43-17 60-17 55-46 121-74 172-79 143-191 264-328 355-23 15-59 37-61 37 0 0-11-5-22-13zM556 1101c0 0-1-7-3-15-9-44-15-85-19-135-2-29-2-116 0-145 0-11 1-20 1-21 0 0 2 0 6 3 8 6 24 13 34 16 18 5 16 5 183 5 155 0 173 0 197 3 38 5 67 16 82 32l4 4 6-6c17-16 45-26 93-32 6 0 63-1 180-1l171 0 10-2c18-4 31-10 42-19l5-4 0 5c3 32 5 107 2 145-3 52-9 97-19 146-2 11-4 21-4 22 0 0-219 0-487 0-389 0-487 0-487-1z" fill="#c41230"/><path d="m1101 1983c-21-2-36-16-43-40-2-10-2-32 0-43 8-33 31-51 71-56 5 0 10-1 10 0 0 0 0 5 1 12l0 12-2 0c-1 0-5 0-8 1-3 0-9 1-13 3-15 5-24 13-28 27 0 2 0 1 4-1 8-5 14-7 25-6 7 0 11 0 15 2 16 6 25 21 25 42 0 31-25 52-59 48zm15-25c8-4 12-15 10-26-3-16-20-22-32-12-5 4-7 10-6 17 2 13 10 22 20 22 2 0 5 0 6-1zm-164 22c-9-1-20-7-25-12-2-2-5-7-7-11-2-6-3-7-2-15 0-6 0-10 2-13 3-6 10-13 16-16l5-2-5-4c-3-3-6-7-7-10-2-5-2-6-2-14 0-10 3-16 10-23 8-8 19-11 34-11 20 0 37 8 43 21 2 4 2 6 2 14 0 7 0 9-2 14-2 5-9 12-14 14l-3 1 5 4c6 4 10 9 12 16 2 5 2 19 0 26-4 11-16 20-30 24-8 1-24 1-33 0zm25-24c1-1 3-3 5-5 1-2 2-4 1-9 0-7-4-12-12-17l-6-3-5 2c-6 3-10 8-11 15 0 7 2 13 10 18 4 2 14 1 18-1zm0-60c9-3 13-15 8-23-2-4-6-6-12-7-8 0-16 5-16 14 0 5 2 9 9 14 6 4 6 4 10 2zm224 71c-2 0-2 0-1-13 0-6 0-12 0-12 0 0 3 0 7 0 13 1 29-1 38-7 7-5 9-17 4-25-6-9-24-11-48-3-5 1-7 2-8 1-1-3-6-70-5-70 0 0 69-16 71-16 1 0 6 25 5 25 0 0-12 3-25 5l-24 5 0 9c0 5 0 9 0 9 0 0 2 0 5-1 3-1 9-1 17-1 10 0 13 0 19 2 8 3 14 7 18 13 9 14 10 33 2 48-6 12-24 24-42 27-8 1-29 2-36 1zm-357-5c-7-1-14-3-15-3 0 0 3-21 10-51 6-28 11-51 11-51 0 0-14 2-25 5-2 0-2 0-2-12l0-12 19-4 19-4 12 2c6 1 12 3 12 3 0 0-28 129-29 131 0 0-5 0-14-2zM627 1839c-10-4-15-12-16-24 0-6 0-8 2-13 6-13 19-19 34-15 7 2 15 9 18 17 4 13-1 28-14 34-5 2-18 3-23 0zm808 0c-10-4-15-12-16-24 0-6 0-8 2-13 6-13 19-19 34-15 8 2 15 9 18 18 4 13-1 28-14 33-5 2-18 3-23 0zm197-79c-5-5-9-10-9-10 0 0 6-6 13-12 7-6 16-14 19-17l6-5-2-3c-1-1-5-6-8-9l-6-6-17 15c-9 8-18 15-19 16-2 1-2 1-11-7-4-5-8-9-8-10 0 0 6-6 13-12 7-6 16-14 19-16l5-4-10-11c-5-6-10-11-10-11 0 0-10 8-21 18-11 9-20 18-21 18 0 0-4-4-9-9l-9-9 9-7c13-11 24-20 42-37l15-14 2 2c1 1 22 24 48 52l45 50-10 9c-12 12-32 29-45 40l-9 8-9-10zm-1200-4c-6-5-11-10-11-11 0-1 39-57 50-72l9-12-16 11c-9 6-29 19-45 29l-28 18-11-12-11-12 1-2c0-1 11-16 22-32 11-16 24-34 28-39 4-5 7-9 6-9 0 0-6 4-13 9-25 17-70 47-71 46-7-8-20-23-20-24 0 0 120-71 122-71 1 0 5 3 12 12 6 6 11 12 11 13 0 1-39 58-48 70l-8 11 5-3c2-2 7-5 9-7 2-1 19-12 37-23l32-20 7 6c3 3 9 9 12 12 3 2 5 5 5 6-1 3-75 119-76 119 0 0-6-4-13-10zm1298-85c-4-3-9-8-11-9l-2-2 12-14c6-7 12-14 11-14 0 0-19-16-43-34-23-18-42-34-42-35 0 0 1-3 4-6 2-3 7-8 9-11 2-3 5-6 5-6 0 0 20 15 43 34 23 18 43 34 43 34 0 0 5-6 11-14 5-7 10-14 11-14 1 0 23 17 22 19 0 0-7 9-15 20-15 20-36 46-46 56l-5 6-8-7zM296 1581c-18-4-34-18-44-37-6-13-8-26-5-41 7-35 52-65 89-59 20 3 38 17 48 39 7 14 8 31 3 47-7 24-35 47-62 52-8 1-23 1-30 0zm18-30c17-4 36-18 44-32 2-4 2-6 2-13 0-9-1-14-7-20-14-15-43-10-65 11-13 13-17 26-11 38 6 14 20 20 37 16zm579 17c-1-1-6-7-10-12-9-10-28-35-35-44-3-5-4-5-7-4-7 1-22 0-29-1-12-3-25-14-33-24-3-5-8-15-8-17 0-2 7-3 18-3 10 0 17 1 26 6 2 1 5 2 5 2 0 0-3-6-7-13l-7-13-7 0c-27-1-51-22-57-51l0-3 7 0c12 0 24 4 34 12 3 2 3 2 3 1 0-1-2-8-5-15-2-7-4-14-5-14 0 0-2-1-5-1-2 0-8-2-12-4-20-9-35-33-35-54l0-6 3 0c11 1 23 8 32 17 4 4 6 5 5 4 0-1-1-8-1-15 0-7-1-13-1-13-4-2-19-13-24-19-12-12-16-25-16-43 0-11 0-13 2-13 2 0 15 7 20 11 6 4 13 14 16 21l1 4 0-8c0-4 1-11 1-14 0-6 0-6-1-13-4-9-5-17-5-28 0-18 7-33 20-44 3-2 5-3 6-2 0 0 2 4 4 8 11 23 7 51-7 68l-5 5 0 19c4 99 39 191 101 268 5 7 13 16 17 20l7 7 0 4c0 2 0 9 0 15 0 6 0 11 0 11 0 0-1-1-3-2zm296-8c0-6 0-13 0-15 0-3 0-4 6-12 72-81 112-177 118-287l1-20-4-4c-5-5-10-14-13-23-2-8-2-24 0-34 1-7 8-21 10-21 1 0 13 11 17 17 5 10 8 18 8 31 0 11-2 20-6 29-1 3-1 4 0 14 0 5 1 12 1 15l0 5 3-6c3-7 9-14 16-20 5-4 18-11 20-10 2 0 3 13 1 22-2 15-7 25-18 36-5 5-19 15-22 17 0 0-1 7-2 15 0 8-1 15-2 16 0 0 1-1 4-4 9-9 22-16 34-18l4 0 0 6c-1 13-4 23-11 33-8 11-22 22-35 25-3 0-6 1-6 1 0 0-2 7-5 15l-5 15 4-3c10-7 21-11 33-11 8 0 8 0 5 8-6 25-30 45-56 46l-7 0-2 5c-1 2-4 8-7 13-2 4-4 8-4 8 0 0 3-1 6-3 8-3 21-6 29-5 6 0 14 2 14 3 0 0-1 4-3 8-11 23-35 38-60 37-4 0-8 0-10-1-1 0-3 1-8 9-12 17-44 56-46 56 0 0 0-5 0-11zm608-26c-40-22-46-26-54-35-15-17-18-38-6-61 15-31 41-40 74-26 4 2 78 42 79 44 0 0-14 28-15 28 0 0-17-9-38-20-20-11-39-21-42-23-7-2-16-3-21-2-12 4-19 20-13 31 4 8 11 13 52 36 21 11 38 21 39 22 0 0-13 24-16 27 0 0-17-8-37-19zm-931-48c-15-23-15-23-14-28 2-10 14-26 21-30 2-1 2 0 4 3 6 11 9 28 7 41-1 7-5 18-9 23l-1 2-7-12zm341 6c-5-9-7-17-7-28 0-11 1-19 6-30 3-6 3-7 5-6 7 4 17 16 20 27l2 6-4 7c-5 9-18 29-19 29 0 0-2-2-3-5zM193 1433c-7-13-14-32-17-42-2-10-3-25 0-33 2-7 10-15 18-19 6-3 7-3 16-3 8 0 10 0 15 2 3 1 7 4 9 5l3 3 0-3c1-9 5-14 27-31 9-7 19-14 20-15 1-1 2-1 2 0 0 0 2 8 5 16l5 14-2 2c-1 1-9 7-16 12-15 11-17 13-20 19-1 3-1 4 0 9 0 2 2 7 3 9l1 3 24-9c13-5 24-9 25-9 0 0 13 28 13 29 0 0-126 51-128 51 0 0-3-4-6-10zm35-35c6-2 12-5 13-5 1-1-3-13-7-18-7-10-20-12-29-3-6 6-7 14 0 28l3 7 3-1c2 0 9-3 16-6zm601 23c-3-7-7-15-8-19l-2-5 3-5c3-6 12-14 18-16l4-2 1 2c4 9 5 29 2 40-2 6-6 14-10 17-1 1-2 1-8-11zm416 9c-7-9-10-18-10-31 0-8 1-16 4-23l1-3 5 2c6 3 15 12 18 18l2 4-3 7c-4 9-13 29-14 29 0 0-1-1-3-3zm649-24c-6-2-12-4-12-4 0 0 1-5 4-11 2-6 5-14 6-17l2-6-52-18c-28-10-52-18-52-18 0 0 8-28 9-30 0 0 23 8 52 18 29 10 52 18 53 18 0 0 2-7 5-17 2-9 5-17 5-17 0 0 6 1 13 4l13 4 0 3c0 6-19 62-27 81-4 10-7 17-8 17 0 0-7-1-13-4zm-968-24c-3-6-6-11-6-12 0 0 12 0 33 0l33 0 2-8c3-13 7-21 15-29 10-10 22-14 37-14l7 0 2-4c4-9 16-16 27-17l6 0-5-5c-8-7-16-18-24-35-7-16-11-20-15-23-1 0-7-1-14-2-6 0-12-1-14-2-2-1-7-6-8-8 0 0-2 0-6 1-3 1-7 3-8 3l-2 0 4 8 4 8-2 8c-1 4-3 8-3 9 0 0-4 2-8 4l-7 3-8-3-8-3-12-27c-7-15-12-27-12-28 0 0 37-16 38-16 0 0 6 11 10 20 0 0 4-1 10-4l10-4 0-3c0-1 0-4 0-5 0-2 5-6 9-6 3 0 5 0 5-2 0-2 4-4 9-4 4 0 5 0 6-2 1-2 2-2 7-2 3 0 6 0 7-1 2-1 8-1 13 0 3 1 4 1 10-1 5-2 6-3 7-6 2-5 2-6 6-6 2 0 4 0 7 3 6 6 10 18 8 24-1 3-3 4-9 2-5-1-5-1-10 0-8 3-8 3-8 9 0 6 2 13 6 18 1 1 7 7 13 12 31 26 59 62 59 76 0 4 0 4-5 8-5 3-5 3-6 8-4 20-17 39-34 48l-6 3 34 0 34 0-6 11-6 11-110 0-110 0-6-11zm-122-20c-1-2-9-30-10-35 0-2 0-3 5-8 3-3 8-7 12-8 10-5 10-5 12 1 0 2 1 9 1 15 0 14-3 24-12 33-5 5-6 6-8 2zm469-2c-9-9-13-20-13-35 0-5 0-11 1-14 1-4 1-5 3-4 7 1 18 9 23 15l2 3-2 8c-2 10-8 30-9 31 0 0-3-1-5-4zM184 1290c-14-2-25-8-35-18-6-6-10-12-15-22-6-12-8-23-8-39 0-7 0-13 0-14 0 0 6 0 13 0l12 0 0 9c0 17 4 32 14 41 10 9 23 12 39 9 26-5 40-23 36-47-1-9-3-15-7-24l-3-6 3-1c19-8 20-8 21-7 2 3 7 14 9 20 5 17 7 38 4 51-6 24-25 41-52 48-9 2-25 2-33 1zm603-11c-1-10-2-26-2-32l0-6 5-3c6-4 16-7 20-7 2 0 2 0 3 8 0 13-3 27-10 35-3 4-12 11-13 11 0 0-1-1-1-5zm505 1c-8-6-14-15-17-27-1-6-2-20 0-22 1-3 16 1 24 7 3 2 3 2 3 9 0 7-1 25-2 32 0 2-1 3-1 3 0 0-3-1-5-3zm596-32c-37-8-68-14-68-14 0 0 6-31 6-31 0 0 137 29 138 29 0 0-1 7-3 15-1 8-3 15-3 15 0 0 2 1-70-14zm65-62c-8 0-10-1-9-2 0-3 4-35 4-35 0 0-25-2-55-5-30-2-55-5-55-5 0 0 0-4 0-9 0-5 1-12 1-15 0-6 0-6 3-6 1 0 25 2 53 4 27 2 51 4 52 4l2 0 0-13c0-7 0-15 1-18l0-4 8 0c4 0 11 0 14 1l6 0 0 14c-1 27-4 62-7 85l-1 7-4 0c-2 0-9 0-14-1zM114 1141c0-5-3-47-4-66l0-16 2 0c1 0 8 0 14-1l11 0 0 21c0 11 0 24 1 27l0 5 13 0c7 0 13 0 13 0 0 0 0-11 0-25 0-13 0-25 0-25 0 0 6 0 13-1l13 0 1 25c0 13 1 25 1 25 0 0 29 0 30-1 0 0 0-6 0-16 0-8 0-21-1-28l0-12 6 0c3 0 9 0 13-1l7 0 0 14c0 15 1 41 3 61 0 7 1 13 1 13 0 0-28 2-64 4-35 2-66 4-70 4l-6 0 0-3zm1754-99c-10-3-18-10-24-21-8-16-9-43-3-64 1-5 2-6 3-6 0 0 7 1 13 2 10 1 12 2 11 3-3 8-5 18-5 29 0 10 0 11 2 16 5 11 17 12 24 1 1-2 4-9 6-15 8-27 20-39 37-41 22-2 40 13 46 40 3 17 0 48-5 46 0 0-6-1-11-2-14-3-13-2-11-8 2-7 3-24 1-30-1-5-6-10-10-11-3 0-8 1-11 6-1 2-4 9-6 16-8 23-14 33-26 38-8 3-21 4-29 1zM232 1013c-6-2-11-4-12-4 0 0 0-3 3-9 5-11 7-20 7-29 0-10-3-17-10-18-7-1-13 3-22 20-9 18-16 26-27 32-5 2-17 3-25 2-11-2-22-12-27-25-3-8-4-26-2-37 1-12 7-27 10-27 1 0 23 8 24 9 0 0 0 3-2 6-7 15-8 32-2 39 8 8 15 3 25-14 14-27 24-36 41-37 22-1 38 11 44 34 2 9 1 30-1 41-2 9-8 23-10 23 0 0-6-1-12-4zM1830 911c0-1-1-9-3-16l-2-14 7-6c29-28 53-49 67-61 5-4 9-8 8-7-8 3-94 25-96 24 0 0-2-5-4-12-1-6-3-12-4-13 0-1 3-2 67-18 64-15 70-17 70-16 0 0 2 7 4 16 2 8 4 16 4 17 0 3-52 52-72 67-4 3-7 6-7 6 0 0 5-1 12-3 11-3 75-19 78-19 0 0 2 4 4 14 1 8 2 14 2 14 0 0-136 33-136 33 0 0 0-1-1-2zM142 867c-13-3-13-3-13-6 2-19 25-103 27-102 0 0 7 1 14 3 12 3 13 3 12 5 0 1-2 9-5 18-3 11-4 16-3 16 0 0 25 6 54 14 29 7 53 13 53 13 0 0-7 31-8 31 0 0-24-6-54-13-29-7-53-13-54-13 0 0-2 8-4 17-2 9-3 17-4 17 0 0-6 0-14-2zm95-127c-34-15-63-28-63-28-1 0-1-2 3-12 5-14 19-44 26-57l4-9 12 5c9 4 12 5 12 7 0 0-5 11-11 24-5 12-10 23-10 23 0 0 5 3 21 10l2 1 2-5c6-13 19-40 19-40 0 0 5 2 12 5l11 5-4 8c-11 25-16 36-16 37 0 0 6 3 13 7l13 6 2-5c1-3 7-14 12-25 5-11 10-19 10-19 2 0 22 9 23 10 0 0-1 6-5 13-7 14-20 44-26 59-2 5-4 9-4 9 0 0-29-12-63-27zm1545 8c-3-7-5-14-6-15 0 0 128-54 130-54 0 0 11 27 11 29 0 0-75 32-126 52l-4 1-5-14zM297 618c-31-20-57-37-58-37-1 0 0-2 3-11 2-5 8-15 12-21 13-21 24-32 36-37 13-4 29 0 40 10 6 7 9 14 9 24l0 8 3-1c2-1 5-1 12-1 8 0 10 0 29 6 11 3 21 6 23 7 1 0 3 0 3 1 0 0-2 3-5 8-3 4-7 10-10 13l-4 6-6-1c-3-1-12-3-19-6-16-5-20-6-25-4-5 2-6 3-11 10l-3 5 22 14c12 7 22 14 22 15 0 1-15 27-15 27 0 0-26-16-57-37zm13-40c7-12 8-18 5-25-2-4-6-8-12-10-5-1-11 0-16 5-3 3-11 15-11 17 0 0 29 20 30 20 0 0 2-2 5-6zm1390 15c-7-5-18-17-24-26-22-33-16-69 14-94 33-26 73-22 101 8 9 10 20 29 21 35 0 1-2 2-11 6-6 2-11 4-12 4 0 0-1-2-2-5-9-24-30-39-49-36-11 2-26 11-33 21-13 18-12 35 4 55 2 3 8 8 11 10 3 2 6 4 6 5 0 1-16 18-17 18 0 0-3-1-7-4zm-98-114-11-11 49-50c27-27 49-50 49-50 1 0 23 21 23 22 0 0-97 102-98 101 0 0-5-5-11-11zM505 453c-2-2-20-25-40-49-19-24-37-46-39-48l-3-4 10-9c23-22 41-34 56-37 18-3 36 6 45 25 3 7 3 8 3 18l0 11-4 8c-3 7-5 10-14 19-5 5-11 10-12 10-1 0-2 0-2 1 0 0 6 9 15 19 14 18 15 18 13 20-5 4-21 18-22 18 0 0-2-2-5-5zm-6-81c11-11 12-23 1-33-6-6-12-6-21-2-3 1-8 5-11 7l-5 4 12 15 12 15 2-1c1 0 5-3 7-6zm1051 59c-5-4-11-9-13-10l-3-2 4-38c4-38 7-57 10-68 0-3 1-5 0-5 0 0-5 8-12 17-8 12-42 60-45 63 0 0-23-14-24-15 0 0 71-101 81-112l1-2 11 7c6 4 13 8 14 10l3 2-3 30c-3 33-6 52-9 68-1 5-1 9-1 8 8-14 52-75 54-77 0 0 6 3 12 8l11 9-2 3c-10 15-81 111-81 111 0 0-5-3-10-8zM613 362c-26-6-49-34-54-65-4-23 5-48 22-62 13-10 25-15 41-16 20 0 33 4 48 19 11 11 16 19 21 35 6 17 5 36-1 52-8 16-27 31-47 37-7 1-23 1-30 0zm33-29c13-5 20-20 17-35-3-19-17-39-32-47-18-9-39 2-42 23-1 14 7 35 19 48 11 12 24 15 37 10zm773 11c-6-3-12-7-13-7 0 0 4-12 11-26l12-26-12-5c-14-7-33-15-34-15 0 0-5 11-11 25-6 13-12 25-12 25-1 1-29-10-29-11 0-1 57-125 59-127 1-1 29 10 29 12 0 0-5 12-11 25l-11 24 12 5c6 3 16 7 22 10 5 2 10 4 10 4 0 0 5-11 12-24 6-13 11-24 12-24 0 0 26 13 28 14 0 0-13 28-29 64-18 39-30 63-31 64 0 0-7-2-13-6zM720 246c-12-36-23-66-23-67 0-1 28-12 29-11 0 0 9 24 19 52 10 28 18 52 19 53 0 1 4 0 26-7 14-5 26-9 26-9 0 1 9 26 9 26 0 0-6 2-13 4-21 6-53 18-68 24 0 0-11-29-24-65zm559 41c-29-3-54-17-64-37-6-11-7-17-7-32 0-15 2-24 9-38 6-12 17-24 29-30 12-5 18-7 34-7 11 0 15 0 24 2 10 2 28 10 29 13 0 1 0 4-5 12-3 6-6 11-6 11 0 0-3-1-6-3-3-2-9-4-13-6-6-2-8-2-18-2-10 0-11 0-17 3-15 7-25 26-24 47 0 7 0 10 3 15 7 15 22 23 46 24l10 0 0 11c0 6 0 11-1 12 0 2-7 3-20 1zM865 265c0-3-3-15-5-26-2-11-4-21-5-22 0-1-14-17-29-36-15-18-28-34-27-34 0 0 29-8 32-8 1 0 5 5 17 21 8 11 16 23 18 26 3 5 4 5 4 0 0-3 10-57 11-58 0 0 27-5 31-5 1 0 2 0 2 0 0 0-6 20-13 44l-13 43 5 28c3 15 5 28 5 28 0 0-29 6-30 6 0 0-1-3-2-6zm291-5c-13-2-46-5-61-6-12 0-14 0-14-2 0-1 12-139 12-139 0 0 62 4 80 7l5 0 0 7c0 4 0 10 0 14 0 6 0 6-3 5-5-1-50-5-51-5 0 0-1 4-1 9 0 4 0 10-1 12l0 4 6 0c15 1 40 4 42 5 2 0 2 0 1 7-1 19-1 19-3 19-1 0-21-2-44-4l-5 0-1 13c-1 20-2 17 7 18 9 0 47 5 47 5 0 0-2 25-2 26 0 0-4 0-13-1zm-169-9c0-7-5-107-6-107 0 0-7 0-15 1-8 0-16 1-18 1l-3 0 0-14c0-7 0-14 0-14 1-1 73-6 96-6 13 0 11-1 12 17l0 12-18 0c-10 0-18 0-18 0 0 0 4 97 5 106l0 5-5 0c-2 0-10 0-16 1l-11 0 0-3z" fill="#fff"/><path d="m1030 1677c-23-16-38-28-57-47-25-25-37-42-50-67-11-23-14-37-13-56 0-15 2-23 8-36 8-16 21-30 37-38 11-5 18-7 32-8 18 0 35 3 49 14l7 5 5-4c7-5 17-10 27-13 11-3 29-3 40 0 33 9 57 39 61 75 3 28-9 64-35 97-10 13-30 35-43 46-14 13-53 42-56 42 0 0-6-4-13-9zM690 1069c-2 0-8-2-12-3l-8-3 0-88 0-88 12-11 12-11 4 2c11 5 26 8 38 6 4 0 12-2 18-4 16-5 25-6 37-6 10 0 20 3 27 7l3 2 8-4c10-5 18-6 31-6 9 0 15 1 36 8 16 4 34 3 48-3 5-2 5-2 8-1 1 0 7 6 13 11l11 9 0 88 0 88-7 2c-4 1-11 3-16 3-10 1-20 0-41-6-21-6-52-10-61-8-3 0-3 1-3 4 0 3 0 3-5 5-4 1-8 1-20 1-19 0-27-2-27-8 0-4-2-4-20-3-16 1-26 3-47 9-21 5-30 6-41 5zm433 0c-2 0-8-2-12-3l-7-2 0-88 0-88 10-8c5-4 11-10 13-11l2-2 7 3c14 6 31 7 47 3 20-6 26-7 36-8 13 0 21 0 31 6l8 4 3-2c11-7 30-9 46-6 4 0 13 3 19 5 5 1 14 3 18 4 12 1 26 0 38-6l4-2 12 11 12 11 0 88 0 88-5 2c-18 6-29 6-58-1-19-5-34-8-49-8-13 0-16 0-16 3 0 6-7 8-27 8-11 0-15 0-20-1-5-1-5-2-5-5 0-4-1-5-16-4-15 0-33 4-49 8-22 6-33 7-45 5z" fill="#000"/><path d="m1034 1646c-41-30-71-62-87-94-8-18-11-27-12-42 0-21 4-35 17-48 11-11 23-16 39-16 20 0 37 9 48 27l3 6 2-5c3-7 14-18 22-22 9-5 16-6 26-6 29 0 53 22 57 54 2 16-1 32-12 54-14 28-45 62-80 88-17 13-14 12-26 4zm-330-609-5-1 0-74 0-74 5 2c13 4 29 6 41 3 3 0 9-2 14-3 23-7 42-7 54 0l3 2 0 68 0 68-3 0c-2 0-10 0-19 0-18 0-26 1-49 8-11 3-14 4-24 4-9 0-13 0-17-1zm214 0c-3 0-10-2-17-4-19-5-26-7-43-7-8 0-16 0-18 0l-3 0 0-69 0-69 5-2c12-5 28-5 47 0 23 7 38 7 57 1l6-1 0 74 0 74-4 1c-6 2-22 2-29 1zm229 0c-1 0-4-1-6-1l-4-1 0-74 0-74 5 2c19 6 35 6 58-1 18-5 35-6 47 0l5 2 0 69 0 69-3 0c-1 0-10 0-18 0-17 0-24 1-43 7-6 1-14 4-17 4-6 1-17 1-22 0zm204-1c-3 0-11-3-18-5-18-5-30-7-46-6-7 0-14 0-15 1l-2 0 0-68 0-68 2-2c6-4 22-7 34-5 3 0 11 2 16 3 17 5 18 5 28 6 11 0 21 0 31-4l6-2 0 74 0 74-5 1c-7 2-23 2-32 0z" fill="#b2b7bb"/><path d="M1015 769C943 765 895 754 881 738l-3-4 0-37 0-37-9 2c-25 6-49 16-86 34-39 19-62 27-93 34-13 2-28 5-32 4-2 0-10-10-48-60-28-33-48-60-48-60 0 0 1 0 2 0 1 0 10 0 20 1 25 0 49-2 78-10 31-8 55-19 102-42 45-22 65-31 94-40 27-8 49-11 71-10 20 0 32 4 40 12 8 8 9 18 2 27-6 6-15 10-44 18-38 11-49 18-50 32 0 4 0 5 1 8 7 11 39 21 85 27 26 3 45 4 80 4 35 0 54-1 80-4 45-5 77-16 85-27 1-2 2-4 1-8-1-13-12-20-50-32-29-8-38-12-44-18-5-5-6-13-3-19 4-8 12-13 26-17 9-2 42-2 58 0 38 7 67 18 123 46 44 22 63 30 88 38 20 6 37 11 55 14 10 1 16 2 35 2 12 0 23 0 25 0 2 0 3 0 3 0 0 0-20 27-46 60-45 58-46 59-49 59-4 0-26-3-38-6-28-6-46-13-80-30-34-16-63-27-93-36l-7-2 0 37 0 37-4 4c-13 14-59 25-122 29-14 0-60 1-73 0zM568 560c-9-15-15-27-15-27 0 0 19-1 63-1 44 0 62 0 60 1-1 0-6 2-10 3-25 7-53 23-73 42-3 3-7 6-7 6 0 0-7-11-16-25zm936 20c-21-20-45-34-71-43-7-2-14-4-15-4-1 0 26 0 60 0 44 0 62 0 62 0 0 0-29 51-30 52 0 0-2-2-6-5z" fill="#fff"/><path d="m1023 706 0-32 7 0 7 0 7 15c3 8 8 17 9 21l2 5 0-21 0-21 7 0 7 0 0 32 0 32-7 0-7 0-7-14c-3-8-7-17-9-19-1-2-2-5-2-5 0 0 0 8 0 19l0 20-7 0-7 0 0-32zm62 0 0-32 6-1c19-3 32 0 38 11 2 5 3 16 2 24-2 19-13 27-37 29l-9 0 0-32zm20 19c7-3 10-10 10-24 0-13-5-21-13-20l-2 0 0 22c0 15 0 22 0 22 0 0 2 0 4-1zm-123 12c-5-1-9-3-12-7-4-6-5-8-5-35l-2-25 2 0c1 0 5 0 8 0l5 0 0 23c0 19 0 24 1 26 2 4 7 5 11 1 1-1 1-4 2-27l0-25 3 0c1 0 5 0 7 0l4 0 0 25c0 25 0 25-2 30-1 2-3 5-6 6-4 2-12 3-18 1zm450-37-5 0 0-26 0-26-3 0c-8-1-8 0-8-7 0-5 0-5 1-5 0 0 9 1 19 3l17 2 0 5 0 5-6 0-6 0 0 26c0 20 0 26-1 26 0 0-3 0-7-1zm-755-34 0-32 6-1 6-1 0 26c0 14 0 26 0 27 0 1 1 0 15-2 2 0 2 0 2 4 0 4 0 5-1 5 0 0-7 1-14 3-6 1-13 2-13 3 0 0-1-6-1-32zm709 24c-5-1-11-5-11-6 0 0 0-3 1-5 0-2 0-3 0-3 0 0 2 1 5 2 7 3 11 4 13 1 4-3 2-6-6-16-4-5-9-10-10-12-2-4-2-14 0-18 4-6 14-7 25-2 5 2 5 2 4 5 0 1 0 3-1 5l0 2-4-2c-7-4-12-2-12 2 0 2 1 4 8 11 9 9 12 14 12 22 0 10-4 14-15 14-3 0-7 0-8 0zm-670-34 0-33 13-4c7-2 13-4 14-4 1 0 1 0 1 5l0 5-8 2-8 2 0 7c0 8 0 8 8 5 3-1 6-2 6-2 0 0 0 2 0 5l0 5-7 2-7 2 0 8c0 6 0 8 1 8 0 0 4-1 8-2 4-1 7-2 7-2 0 0 0 2 0 5l0 5-15 5-15 5 0-33zm646 26-5-2-4-14c-2-7-6-18-8-24-1-5-3-10-3-10 0 0 0 9 0 20l0 20-5-2c-4-1-7-1-7-1 0 0 0-14 0-33 0-31 0-33 1-32 0 0 3 1 5 2l4 1 7 23c4 12 8 23 8 24 0 0 0-8 0-20l0-20 5 2 5 2 0 32c0 18 0 32 0 32 0 0-3 0-5-2zm-607-40 0-32 5-3c3-1 6-3 6-3 0 0 0 5 0 12l0 12 6-3 6-3 0-13 0-13 5-2c3-1 6-2 6-2 0 0 0 14 0 32l0 32-5 3c-3 1-6 3-6 3 0 0 0-5 0-13 0-7 0-13 0-13 0 0-3 1-6 2l-5 2 0 13 0 13-5 2c-3 1-5 2-6 2 0 0 0-11 0-32zm549 14c-12-3-19-12-21-27-1-8-1-48 0-48 0 0 3 1 6 2l5 2 0 24c0 21 0 24 1 28 1 2 3 4 4 5 5 2 5 0 5-27 0-13 0-24 0-24 0 0 3 1 6 2l5 2 0 26c0 22 0 26-1 29-2 4-7 6-12 4zm-499-37 0-32 3-1c11-6 25-9 29-6 6 5 4 20-3 28-1 2-2 2-1 2 2 0 4 3 6 12 1 4 2 9 2 11 0 2 0 2-5 5-3 1-6 2-7 2 0 0-1-3-2-7-2-13-4-15-8-13-1 1-2 2-2 13 0 7 0 13 0 13 0 0-3 1-6 2l-5 2 0-32zm18-12c8-8 4-22-4-16-2 1-2 2-2 10 0 10 0 11 6 5zm445 34-6-2-4-14c-3-12-4-14-6-13-1 0-1 3-1 12 0 6 0 10 0 10 0 0-3 0-6-2l-5-2 0-32 0-32 6 2 6 2 0 14 0 14 5-11c3-6 5-11 5-11 0 0 12 3 13 4 0 0-2 5-6 11l-7 11 3 10c1 5 5 15 7 21 2 6 3 11 3 11 0 0-3-1-7-2zm-303-3c-44-5-77-16-84-27-1-2-2-4-1-8 1-13 12-20 50-32 33-9 42-13 47-22 1-2 1-2 1 44 0 26 0 47 0 47 0 0-6 0-14-1zm148-45c0-46 0-47 1-44 5 9 14 13 47 22 38 11 49 18 50 32 0 4 0 5-1 8-7 11-43 22-87 27l-11 1 0-47zm-543 24c0 0-3 0-5 0-4 0-4 0 5-13 18-23 50-47 78-58 9-3 29-9 29-9 2 3 24 57 23 57-1 1-22 8-36 12-28 8-53 12-77 11-8 0-16 0-17 0zm905-1c-23-3-49-9-73-18-6-2-11-4-11-5 0 0 5-13 12-29 8-20 12-28 13-28 4 0 26 7 37 13 28 13 54 34 72 59 6 8 6 8 3 9-4 1-42 1-53 0z" fill="#000"/></g></g></g></svg>